<?xml version="1.0" encoding="UTF-8" standalone="no"?>
<!-- Created with Inkscape (http://www.inkscape.org/) -->

<svg
   xmlns:dc="http://purl.org/dc/elements/1.1/"
   xmlns:cc="http://creativecommons.org/ns#"
   xmlns:rdf="http://www.w3.org/1999/02/22-rdf-syntax-ns#"
   xmlns:svg="http://www.w3.org/2000/svg"
   xmlns="http://www.w3.org/2000/svg"
   xmlns:xlink="http://www.w3.org/1999/xlink"
   xmlns:sodipodi="http://sodipodi.sourceforge.net/DTD/sodipodi-0.dtd"
   xmlns:inkscape="http://www.inkscape.org/namespaces/inkscape"
   width="64"
   height="64"
   id="svg2"
   version="1.1"
   inkscape:version="0.48.2 r9819"
   sodipodi:docname="icon.svg">
  <defs
     id="defs4">
    <linearGradient
       id="linearGradient3797">
      <stop
         style="stop-color:#000000;stop-opacity:1;"
         offset="0"
         id="stop3799" />
      <stop
         style="stop-color:#000000;stop-opacity:0;"
         offset="1"
         id="stop3801" />
    </linearGradient>
    <linearGradient
       id="linearGradient3789">
      <stop
         style="stop-color:#b5c7ed;stop-opacity:1;"
         offset="0"
         id="stop3791" />
      <stop
         style="stop-color:#b5c4ed;stop-opacity:0;"
         offset="1"
         id="stop3793" />
    </linearGradient>
    <linearGradient
       id="linearGradient3771">
      <stop
         style="stop-color:#ffffff;stop-opacity:1;"
         offset="0"
         id="stop3773" />
      <stop
         style="stop-color:#ffffff;stop-opacity:0;"
         offset="1"
         id="stop3775" />
    </linearGradient>
    <linearGradient
       id="linearGradient3761">
      <stop
         style="stop-color:#1d5d9f;stop-opacity:1;"
         offset="0"
         id="stop3763" />
      <stop
         style="stop-color:#154271;stop-opacity:1;"
         offset="1"
         id="stop3765" />
    </linearGradient>
    <linearGradient
       inkscape:collect="always"
       xlink:href="#linearGradient3761"
       id="linearGradient3767"
       x1="32.064449"
       y1="0.79240173"
       x2="32.840118"
       y2="62.981457"
       gradientUnits="userSpaceOnUse" />
    <linearGradient
       inkscape:collect="always"
       xlink:href="#linearGradient3771"
       id="linearGradient3777"
       x1="28.558714"
       y1="4.3597302"
       x2="29.373199"
       y2="32.99913"
       gradientUnits="userSpaceOnUse" />
    <filter
       inkscape:collect="always"
       id="filter3781">
      <feGaussianBlur
         inkscape:collect="always"
         stdDeviation="1.6"
         id="feGaussianBlur3783" />
    </filter>
    <linearGradient
       inkscape:collect="always"
       xlink:href="#linearGradient3789"
       id="linearGradient3795"
       x1="31.943951"
       y1="-0.56445032"
       x2="32.734474"
       y2="41.950249"
       gradientUnits="userSpaceOnUse" />
    <linearGradient
       inkscape:collect="always"
       xlink:href="#linearGradient3797"
       id="linearGradient3803"
       x1="30.360956"
       y1="63.2076"
       x2="31.377623"
       y2="2.1492538"
       gradientUnits="userSpaceOnUse" />
    <clipPath
       clipPathUnits="userSpaceOnUse"
       id="clipPath3807">
      <path
         d="M 64,32 A 32,32 0 1 1 0,32 32,32 0 1 1 64,32 z"
         sodipodi:ry="32"
         sodipodi:rx="32"
         sodipodi:cy="32"
         sodipodi:cx="32"
         id="path3809"
         style="fill:url(#linearGradient3811);fill-opacity:1;stroke:none"
         sodipodi:type="arc" />
    </clipPath>
    <linearGradient
       inkscape:collect="always"
       xlink:href="#linearGradient3761"
       id="linearGradient3811"
       gradientUnits="userSpaceOnUse"
       x1="32.064449"
       y1="0.79240173"
       x2="32.840118"
       y2="62.981457" />
    <clipPath
       clipPathUnits="userSpaceOnUse"
       id="clipPath3817">
      <path
         d="M 64,32 A 32,32 0 1 1 0,32 32,32 0 1 1 64,32 z"
         sodipodi:ry="32"
         sodipodi:rx="32"
         sodipodi:cy="32"
         sodipodi:cx="32"
         id="path3819"
         style="fill:url(#linearGradient3821);fill-opacity:1;stroke:none"
         sodipodi:type="arc" />
    </clipPath>
    <linearGradient
       inkscape:collect="always"
       xlink:href="#linearGradient3761"
       id="linearGradient3821"
       gradientUnits="userSpaceOnUse"
       x1="32.064449"
       y1="0.79240173"
       x2="32.840118"
       y2="62.981457" />
    <filter
       inkscape:collect="always"
       id="filter3831"
       x="-0.10938704"
       width="1.2187741"
       y="-0.041336863"
       height="1.0826737">
      <feGaussianBlur
         inkscape:collect="always"
         stdDeviation="0.81328125"
         id="feGaussianBlur3833" />
    </filter>
    <filter
       inkscape:collect="always"
       id="filter4022">
      <feGaussianBlur
         inkscape:collect="always"
         stdDeviation="0.8000005"
         id="feGaussianBlur4024" />
    </filter>
  </defs>
  <sodipodi:namedview
     id="base"
     pagecolor="#ffffff"
     bordercolor="#666666"
     borderopacity="1.0"
     inkscape:pageopacity="0.0"
     inkscape:pageshadow="2"
     inkscape:zoom="1"
     inkscape:cx="63.686442"
     inkscape:cy="29.5"
     inkscape:document-units="px"
     inkscape:current-layer="layer1"
     showgrid="false"
     showguides="true"
     inkscape:guide-bbox="true"
     inkscape:window-width="1286"
     inkscape:window-height="803"
     inkscape:window-x="1581"
     inkscape:window-y="84"
     inkscape:window-maximized="0">
    <inkscape:grid
       type="xygrid"
       id="grid2989"
       empspacing="5"
       visible="true"
       enabled="true"
       snapvisiblegridlinesonly="true"
       spacingx="16px"
       spacingy="16px" />
    <sodipodi:guide
       orientation="1,0"
       position="92.875,38.75"
       id="guide4026" />
  </sodipodi:namedview>
  <metadata
     id="metadata7">
    <rdf:RDF>
      <cc:Work
         rdf:about="">
        <dc:format>image/svg+xml</dc:format>
        <dc:type
           rdf:resource="http://purl.org/dc/dcmitype/StillImage" />
        <dc:title></dc:title>
      </cc:Work>
    </rdf:RDF>
  </metadata>
  <g
     inkscape:label="Layer 1"
     inkscape:groupmode="layer"
     id="layer1"
     transform="translate(0,-988.36218)">
    <path
       sodipodi:type="arc"
       style="fill:url(#linearGradient3767);fill-opacity:1;stroke:none"
       id="path2991"
       sodipodi:cx="32"
       sodipodi:cy="32"
       sodipodi:rx="32"
       sodipodi:ry="32"
       d="M 64,32 A 32,32 0 1 1 0,32 32,32 0 1 1 64,32 z"
       transform="matrix(0.94648973,0,0,0.94648973,1.7123288,990.07451)" />
    <path
       transform="matrix(0.94648973,0,0,0.94648973,1.7123288,990.07451)"
       d="M 64,32 A 32,32 0 1 1 0,32 32,32 0 1 1 64,32 z"
       sodipodi:ry="32"
       sodipodi:rx="32"
       sodipodi:cy="32"
       sodipodi:cx="32"
       id="path3779"
       style="fill:none;fill-opacity:1;stroke:url(#linearGradient3803);stroke-width:2.11307100000000010;stroke-miterlimit:4;stroke-dasharray:none;filter:url(#filter3781)"
       sodipodi:type="arc"
       clip-path="url(#clipPath3807)" />
    <path
       sodipodi:type="arc"
       style="fill:none;fill-opacity:1;stroke:url(#linearGradient3795);stroke-width:2.11307100000000010;stroke-miterlimit:4;stroke-dasharray:none;filter:url(#filter3781);opacity:1"
       id="path3787"
       sodipodi:cx="32"
       sodipodi:cy="32"
       sodipodi:rx="32"
       sodipodi:ry="32"
       d="M 64,32 A 32,32 0 1 1 0,32 32,32 0 1 1 64,32 z"
       transform="matrix(0.94648973,0,0,0.94648973,1.7123288,990.07451)"
       clip-path="url(#clipPath3817)" />
    <path
       sodipodi:type="arc"
       style="opacity:0.25;fill:url(#linearGradient3777);fill-opacity:1;stroke:none"
       id="path3769"
       sodipodi:cx="29.644691"
       sodipodi:cy="18.409246"
       sodipodi:rx="25.791952"
       sodipodi:ry="16.481165"
       d="m 55.436644,18.409246 a 25.791952,16.481165 0 1 1 -51.5839047,0 25.791952,16.481165 0 1 1 51.5839047,0 z"
       transform="matrix(0.96680498,0,0,0.75324677,3.3385083,992.90473)" />
    <path
       transform="matrix(0.94648973,0,0,0.94648973,1.7123288,990.07451)"
       d="M 64,32 A 32,32 0 1 1 0,32 32,32 0 1 1 64,32 z"
       sodipodi:ry="32"
       sodipodi:rx="32"
       sodipodi:cy="32"
       sodipodi:cx="32"
       id="path3785"
       style="fill:none;fill-opacity:1;stroke:#000000"
       sodipodi:type="arc" />
    <g
       transform="translate(0.5,-0.7071068)"
       id="g3838"
       style="font-size:72px;font-style:normal;font-variant:normal;font-weight:normal;font-stretch:normal;text-align:center;line-height:125%;letter-spacing:0px;word-spacing:0px;writing-mode:lr-tb;text-anchor:middle;opacity:0.5;fill:none;stroke:#000000;stroke-width:2;stroke-linecap:round;stroke-linejoin:round;stroke-miterlimit:4;stroke-dasharray:none;filter:url(#filter4022);font-family:HumstSlab712 BT;-inkscape-font-specification:HumstSlab712 BT">
      <path
         sodipodi:nodetypes="cccccccccccccsccccscsscscc"
         inkscape:connector-curvature="0"
         id="path3840"
         style="line-height:125%;fill:none;stroke:#000000;stroke-width:2;stroke-linecap:round;stroke-linejoin:round;stroke-miterlimit:4;stroke-dasharray:none;font-family:Century Schoolbook;-inkscape-font-specification:Century Schoolbook"
         d="m 31.429687,997.87781 c 1.054676,5e-5 1.980456,0.39849 2.777344,1.19531 0.796861,0.79693 1.195298,1.73438 1.195313,2.81248 -1.5e-5,1.0548 -0.386733,1.9688 -1.160157,2.7422 -0.77345,0.7735 -1.69923,1.1602 -2.777343,1.1602 -1.078135,0 -2.009775,-0.3926 -2.794922,-1.1778 -0.785164,-0.7851 -1.177741,-1.705 -1.177735,-2.7597 -6e-6,-1.0547 0.398431,-1.98045 1.195313,-2.77738 0.796866,-0.79682 1.710928,-1.19526 2.742187,-1.19531 z m -9.105468,11.65239 13.078125,-0.3868 0,28.336 c -1.5e-5,0.7734 0.187485,1.3242 0.5625,1.6523 0.539046,0.4688 1.218733,0.7031 2.039062,0.7031 l 3.726563,0 0,2.6368 -18.703125,0 0,-2.6368 3.480468,0 c 1.031244,0 1.787102,-0.2519 2.267579,-0.7558 0.48046,-0.5039 0.720694,-1.2363 0.720703,-2.1973 l 0,-20.7422 c -9e-6,-1.3124 -0.375009,-2.3027 -1.125,-2.9707 -0.750007,-0.6679 -1.863287,-1.0019 -3.339844,-1.0019 l -2.707031,0 z" />
    </g>
    <g
       style="font-size:72px;font-style:normal;font-variant:normal;font-weight:normal;font-stretch:normal;text-align:center;line-height:125%;letter-spacing:0px;word-spacing:0px;writing-mode:lr-tb;text-anchor:middle;fill:#ffffff;fill-opacity:1;stroke:none;font-family:HumstSlab712 BT;-inkscape-font-specification:HumstSlab712 BT"
       id="text3823"
       transform="translate(0.5,-0.7071068)">
      <path
         d="m 31.429687,997.87781 c 1.054676,5e-5 1.980456,0.39849 2.777344,1.19531 0.796861,0.79693 1.195298,1.73438 1.195313,2.81248 -1.5e-5,1.0548 -0.386733,1.9688 -1.160157,2.7422 -0.77345,0.7735 -1.69923,1.1602 -2.777343,1.1602 -1.078135,0 -2.009775,-0.3926 -2.794922,-1.1778 -0.785164,-0.7851 -1.177741,-1.705 -1.177735,-2.7597 -6e-6,-1.0547 0.398431,-1.98045 1.195313,-2.77738 0.796866,-0.79682 1.710928,-1.19526 2.742187,-1.19531 z m -9.105468,11.65239 13.078125,-0.3868 0,28.336 c -1.5e-5,0.7734 0.187485,1.3242 0.5625,1.6523 0.539046,0.4688 1.218733,0.7031 2.039062,0.7031 l 3.726563,0 0,2.6368 -18.703125,0 0,-2.6368 3.480468,0 c 1.031244,0 1.787102,-0.2519 2.267579,-0.7558 0.48046,-0.5039 0.720694,-1.2363 0.720703,-2.1973 l 0,-20.7422 c -9e-6,-1.3124 -0.375009,-2.3027 -1.125,-2.9707 -0.750007,-0.6679 -1.863287,-1.0019 -3.339844,-1.0019 l -2.707031,0 z"
         style="line-height:125%;font-family:Century Schoolbook;-inkscape-font-specification:Century Schoolbook"
         id="path3836"
         inkscape:connector-curvature="0"
         sodipodi:nodetypes="cccccccccccccsccccscsscscc" />
    </g>
  </g>
</svg>
